<svg width="350" height="168" viewBox="0 0 350 168" fill="none" xmlns="http://www.w3.org/2000/svg">
<path d="M149.55 84.0292C149.55 86.2586 148.101 89.7978 145.203 94.6467C140.744 102.115 136.23 107.772 131.659 111.618C127.089 115.464 120.679 119.003 112.431 122.236C103.067 125.914 91.0283 128.98 76.3141 131.432C62.3803 133.773 50.0907 134.943 39.4453 134.943C17.1512 134.943 4.49927 130.986 1.48956 123.072C0.597798 120.731 0.151916 116.885 0.151916 111.535C0.151916 108.358 0.681401 104.066 1.74037 98.6597C3.07802 91.9715 4.58287 88.6273 6.25493 88.6273C7.36963 88.6273 7.92698 89.129 7.92698 90.1322C7.92698 90.8568 7.78765 91.9157 7.50897 93.3091C7.28603 94.7025 7.17456 95.7615 7.17456 96.486C7.17456 108.469 18.7118 114.461 41.7862 114.461C66.7556 114.461 89.0775 111.897 108.752 106.769C125.696 102.422 136.926 96.5696 142.444 89.2126L147.878 82.0227C148.993 82.803 149.55 83.4718 149.55 84.0292ZM88.0186 154.757C88.0186 156.708 83.1139 161.111 73.3044 167.966C70.0161 164.176 67.926 161.836 67.0342 160.944C63.6901 157.544 61.2935 155.844 59.8444 155.844V154.757L75.0601 140.294C83.6991 146.369 88.0186 151.19 88.0186 154.757ZM204.608 1.68034C203.883 11.5455 203.131 26.594 202.351 46.8259C202.072 73.969 197.752 94.3959 189.392 108.107C183.596 117.582 174.957 122.319 163.475 122.319C160.8 122.319 157.79 121.706 154.446 120.48C151.158 119.254 149.513 118.167 149.513 117.22C149.513 116.606 150.572 115.993 152.69 115.38C154.362 114.99 156.035 114.572 157.707 114.126C160.995 101.809 162.639 90.3551 162.639 79.7654C162.639 78.4835 162.583 76.5328 162.472 73.9132C162.416 71.2379 162.388 69.2593 162.388 67.9774C162.388 51.3683 166.318 35.651 174.176 20.8254C174.901 20.8254 175.57 21.327 176.183 22.3302C173.953 31.4708 172.839 46.5751 172.839 67.643C172.839 76.7836 171.835 85.3111 169.829 93.2255C167.99 99.5236 166.15 105.85 164.311 112.203C168.603 110.754 171.557 109.584 173.173 108.692C176.239 107.02 179.137 104.568 181.868 101.335C186.382 95.9287 189.308 87.4848 190.646 76.0033C191.259 70.2626 191.566 59.7286 191.566 44.4014C191.566 37.6017 192.653 29.966 194.826 21.4942C197.111 12.4094 199.982 5.33099 203.437 0.259086L204.608 1.68034ZM245.035 82.1899C245.035 83.4718 244.032 86.8995 242.025 92.4731C236.786 107.02 231.463 116.551 226.057 121.065C224.496 122.347 219.48 124.242 211.008 126.75C202.314 129.314 197.325 130.596 196.044 130.596C193.87 130.596 192.532 129.871 192.031 128.422C199.889 124.242 207.72 120.062 215.523 115.882C225.834 109.361 230.99 103.174 230.99 97.322C230.99 93.6435 229.624 89.6306 226.893 85.2832C226.726 84.9488 224.162 81.4375 219.202 74.7493C226.336 60.8154 230.655 53.8485 232.16 53.8485C232.717 53.8485 234.083 55.2419 236.257 58.0287C242.109 65.4415 245.035 73.4952 245.035 82.1899ZM286.549 115.715H284.375C281.867 115.715 279.833 118 278.272 122.57C274.092 134.832 269.243 143.359 263.725 148.153C260.381 151.051 254.696 154.116 246.67 157.349C239.48 160.191 234.798 161.613 232.625 161.613C231.789 161.613 231.176 161.306 230.786 160.693C231.064 160.136 234.018 157.823 239.647 153.754C246.893 148.515 252.467 144.251 256.368 140.963C267.515 131.599 273.089 124.465 273.089 119.56C273.089 118.613 272.503 118.139 271.333 118.139C267.654 118.139 263.614 117.247 259.211 115.464C254.64 113.569 252.355 111.702 252.355 109.862C252.355 107.243 254.501 101.642 258.793 93.0583C263.196 84.1407 266.345 79.6818 268.24 79.6818C271.528 79.6818 274.538 81.6604 277.269 85.6176C279.498 88.9618 281.114 92.8911 282.118 97.4056H286.549V115.715ZM349.381 79.3474C349.381 80.908 348.071 85.2275 345.452 92.3059C344.059 96.1516 342.247 98.7433 340.018 100.081C337.565 101.53 333.497 102.255 327.812 102.255C324.077 102.255 318.866 101.614 312.178 100.332C304.932 106.463 299.805 110.308 296.795 111.869C291.835 114.433 285.592 115.715 278.068 115.715V97.4056H283.001C290.413 97.4056 294.789 95.427 296.126 91.4698C294.343 89.2404 293.451 85.6176 293.451 80.6015C293.451 75.1394 294.677 70.4576 297.129 66.5562C300.083 61.7629 301.7 58.7811 301.978 57.6107C302.257 55.5485 302.508 53.5141 302.731 51.5077C303.288 48.1635 304.096 46.4915 305.155 46.4915C310.617 50.3372 314.742 53.0961 317.529 54.7682C322.545 57.7779 327.004 59.9237 330.905 61.2056C337.147 63.2121 341.439 65.1349 343.78 66.9742C347.514 69.8724 349.381 73.9968 349.381 79.3474ZM341.857 84.4472C341.857 82.2178 340.213 79.849 336.924 77.341C333.636 74.8329 330.543 73.5788 327.645 73.5788C326.697 78.8737 324.635 83.6948 321.458 88.0421L330.905 89.965C333.134 89.965 335.364 89.547 337.593 88.7109C340.436 87.7077 341.857 86.2865 341.857 84.4472ZM318.615 72.5756C318.615 70.9593 317.779 69.6495 316.107 68.6463C314.491 67.643 312.624 67.1414 310.506 67.1414C308.054 67.1414 305.741 68.479 303.567 71.1543C301.393 73.8296 300.306 76.3656 300.306 78.7622C300.306 80.5457 301.226 82.4965 303.065 84.6144C304.96 86.6766 306.8 87.7077 308.583 87.7077C311.537 87.7077 314.017 85.8684 316.024 82.1899C317.751 79.013 318.615 75.8082 318.615 72.5756Z" fill="#FABC4B"/>
</svg>
