<svg width="132" height="261" viewBox="0 0 132 261" fill="none" xmlns="http://www.w3.org/2000/svg">
<path d="M64.7398 169.179C66.0654 169.179 68.17 170.041 71.0534 171.764C75.4945 174.415 78.8584 177.1 81.1452 179.818C83.4321 182.535 85.5366 186.347 87.4589 191.252C89.6463 196.82 91.4691 203.978 92.9274 212.728C94.3194 221.014 95.0153 228.322 95.0153 234.652C95.0153 247.909 92.6622 255.432 87.956 257.222C86.564 257.752 84.2772 258.017 81.0955 258.017C79.2064 258.017 76.6545 257.702 73.4396 257.073C69.4626 256.277 67.474 255.382 67.474 254.388C67.474 253.725 67.7723 253.394 68.3689 253.394C68.7997 253.394 69.4294 253.477 70.258 253.642C71.0865 253.775 71.7162 253.841 72.1471 253.841C79.2727 253.841 82.8355 246.981 82.8355 233.26C82.8355 218.412 81.311 205.138 78.2619 193.439C75.6767 183.364 72.1968 176.686 67.822 173.405L63.5466 170.173C64.0106 169.51 64.4083 169.179 64.7398 169.179ZM106.797 205.768C107.957 205.768 110.576 208.685 114.652 214.518C112.399 216.473 111.007 217.716 110.476 218.246C108.455 220.235 107.444 221.66 107.444 222.522L106.797 222.522L98.197 213.474C101.81 208.337 104.676 205.768 106.797 205.768ZM15.7718 136.44C21.6381 136.87 30.5865 137.318 42.6172 137.782C58.7575 137.948 70.9042 140.516 79.0573 145.487C84.6915 148.934 87.5086 154.071 87.5086 160.899C87.5086 162.489 87.144 164.279 86.4149 166.268C85.6858 168.223 85.0395 169.201 84.4761 169.201C84.1115 169.201 83.7469 168.571 83.3824 167.312C83.1504 166.317 82.9018 165.323 82.6367 164.329C75.3122 162.373 68.5014 161.396 62.2044 161.396C61.4421 161.396 60.2821 161.429 58.7244 161.495C57.1336 161.528 55.957 161.545 55.1947 161.545C45.3183 161.545 35.9721 159.208 27.1563 154.535C27.1563 154.104 27.4545 153.707 28.0511 153.342C33.4865 154.668 42.4681 155.331 54.9959 155.331C60.4312 155.331 65.502 155.927 70.2083 157.12C73.9533 158.214 77.715 159.308 81.4932 160.402C80.6315 157.85 79.9355 156.093 79.4053 155.132C78.411 153.309 76.9527 151.586 75.0305 149.962C71.8157 147.277 66.7946 145.537 59.9672 144.742C56.5536 144.377 50.2897 144.195 41.1755 144.195C37.1321 144.195 32.5916 143.549 27.554 142.256C22.1518 140.897 17.9427 139.19 14.9267 137.136L15.7718 136.44ZM63.6461 112.4C64.4083 112.4 66.4466 112.997 69.7608 114.19C78.411 117.305 84.0783 120.47 86.7629 123.685C87.5252 124.613 88.652 127.596 90.1434 132.633C91.668 137.804 92.4302 140.77 92.4302 141.532C92.4302 142.825 91.9994 143.62 91.1377 143.918C88.652 139.245 86.1663 134.589 83.6806 129.949C79.803 123.818 76.1242 120.752 72.6442 120.752C70.4568 120.752 68.0706 121.564 65.4855 123.188C65.2866 123.287 63.1986 124.812 59.2215 127.762C50.9359 123.519 46.7931 120.951 46.7931 120.056C46.7931 119.725 47.6217 118.913 49.2788 117.62C53.6868 114.14 58.4758 112.4 63.6461 112.4ZM83.5812 87.7143L83.5812 89.0068C83.5812 90.4982 84.94 91.7079 87.6577 92.6359C94.9491 95.1216 100.02 98.005 102.87 101.286C104.593 103.275 106.416 106.655 108.339 111.428C110.029 115.703 110.874 118.487 110.874 119.78C110.874 120.277 110.692 120.641 110.327 120.873C109.996 120.708 108.62 118.951 106.201 115.604C103.086 111.295 100.55 107.981 98.5947 105.661C93.0268 99.0324 88.7846 95.7182 85.868 95.7182C85.3046 95.7182 85.0229 96.0661 85.0229 96.7621C85.0229 98.9495 84.4926 101.352 83.4321 103.971C82.3052 106.688 81.195 108.047 80.1013 108.047C78.5436 108.047 75.2128 106.771 70.1088 104.219C64.806 101.601 62.1546 99.7284 62.1546 98.6015C62.1546 96.6461 63.3312 94.8565 65.6843 93.2325C67.6729 91.9068 70.0094 90.9456 72.6939 90.3491L72.6939 87.7143L83.5812 87.7143ZM61.9558 50.3515C62.8838 50.3515 65.4523 51.1303 69.6614 52.688C71.9482 53.5166 73.4893 54.5937 74.2848 55.9194C75.1465 57.3777 75.5773 59.7971 75.5773 63.1776C75.5773 65.3981 75.1962 68.497 74.4339 72.474C78.0796 76.7826 80.3664 79.8317 81.2944 81.6214C82.8189 84.571 83.5812 88.283 83.5812 92.7572L72.6939 92.7572L72.6939 89.8241C72.6939 85.4162 71.5174 82.8145 69.1643 82.0191C67.8386 83.0796 65.6843 83.6099 62.7015 83.6099C59.4535 83.6099 56.6696 82.8808 54.3496 81.4225C51.4994 79.666 49.7262 78.7048 49.0302 78.5391C47.804 78.3734 46.5943 78.2243 45.4012 78.0917C43.4126 77.7603 42.4183 77.2797 42.4183 76.65C44.7052 73.402 46.3457 70.9495 47.34 69.2924C49.1297 66.3096 50.4057 63.6582 51.1679 61.3382C52.3611 57.6262 53.5045 55.0743 54.5982 53.6823C56.3216 51.4618 58.7741 50.3515 61.9558 50.3515ZM64.9883 54.8257C63.6626 54.8257 62.2541 55.8034 60.7627 57.7588C59.2713 59.7142 58.5255 61.5536 58.5255 63.277C61.6741 63.8405 64.5409 65.0667 67.126 66.9558L68.2694 61.3382C68.2694 60.0125 68.0208 58.6868 67.5237 57.3611C66.9271 55.6708 66.082 54.8257 64.9883 54.8257ZM57.929 68.6461C56.9679 68.6461 56.189 69.1432 55.5924 70.1375C54.9959 71.0986 54.6976 72.2089 54.6976 73.4683C54.6976 74.9266 55.493 76.302 57.0839 77.5946C58.6747 78.8871 60.1827 79.5334 61.6078 79.5334C62.6683 79.5334 63.8283 78.9865 65.0877 77.8928C66.314 76.766 66.9271 75.6723 66.9271 74.6117C66.9271 72.8552 65.8334 71.3803 63.646 70.1872C61.7569 69.1598 59.8512 68.6461 57.929 68.6461ZM64.7397 -59.0741C66.0654 -59.0741 68.17 -58.2124 71.0534 -56.489C75.4945 -53.8376 78.8584 -51.1531 81.1452 -48.4354C83.4321 -45.7177 85.5366 -41.9064 87.4589 -37.0013C89.6463 -31.4334 91.4691 -24.2746 92.9274 -15.525C94.3193 -7.2394 95.0153 0.0684995 95.0153 6.3987C95.0153 19.6557 92.6622 27.179 87.956 28.9687C86.564 29.499 84.2772 29.7641 81.0955 29.7641C79.2064 29.7641 76.6544 29.4492 73.4396 28.8195C69.4625 28.0241 67.474 27.1293 67.474 26.135C67.474 25.4722 67.7723 25.1407 68.3688 25.1407C68.7997 25.1407 69.4294 25.2236 70.258 25.3893C71.0865 25.5219 71.7162 25.5882 72.1471 25.5882C79.2727 25.5882 82.8355 18.7277 82.8355 5.00672C82.8355 -9.84108 81.3109 -23.1146 78.2618 -34.8139C75.6767 -44.8892 72.1968 -51.5674 67.822 -54.8485L63.5466 -58.0799C64.0106 -58.7427 64.4083 -59.0741 64.7397 -59.0741ZM106.797 -22.4849C107.957 -22.4849 110.576 -19.5684 114.652 -13.7353C112.399 -11.7799 111.007 -10.5371 110.476 -10.0068C108.455 -8.01825 107.444 -6.59312 107.444 -5.73142L106.797 -5.73142L98.197 -14.7793C101.81 -19.9164 104.676 -22.4849 106.797 -22.4849ZM15.7718 -91.8135C21.638 -91.3827 30.5865 -90.9352 42.6172 -90.4712C58.7575 -90.3055 70.9042 -87.737 79.0573 -82.7656C84.6915 -79.3188 87.5086 -74.1818 87.5086 -67.3544C87.5086 -65.7636 87.144 -63.9739 86.4149 -61.9853C85.6857 -60.0299 85.0395 -59.0522 84.476 -59.0522C84.1115 -59.0522 83.7469 -59.6819 83.3823 -60.9414C83.1504 -61.9356 82.9018 -62.9299 82.6366 -63.9242C75.3122 -65.8796 68.5014 -66.8573 62.2043 -66.8573C61.4421 -66.8573 60.2821 -66.8241 58.7244 -66.7579C57.1336 -66.7247 55.957 -66.7081 55.1947 -66.7081C45.3183 -66.7081 35.9721 -69.0447 27.1563 -73.7178C27.1563 -74.1486 27.4545 -74.5463 28.0511 -74.9109C33.4865 -73.5852 42.468 -72.9223 54.9959 -72.9223C60.4312 -72.9223 65.502 -72.3258 70.2082 -71.1326C73.9533 -70.0389 77.715 -68.9453 81.4932 -67.8516C80.6315 -70.4035 79.9355 -72.1601 79.4053 -73.1212C78.411 -74.944 76.9527 -76.6674 75.0305 -78.2914C71.8156 -80.9759 66.7946 -82.7159 59.9672 -83.5113C56.5536 -83.8759 50.2897 -84.0582 41.1755 -84.0582C37.1321 -84.0582 32.5916 -84.7045 27.554 -85.997C22.1517 -87.3559 17.9427 -89.0627 14.9267 -91.1175L15.7718 -91.8135ZM63.646 -137.655C64.4083 -137.655 66.4466 -137.059 69.7608 -135.866C78.411 -132.75 84.0783 -129.585 86.7629 -126.37C87.5251 -125.442 88.652 -122.46 90.1434 -117.422C91.6679 -112.252 92.4302 -109.286 92.4302 -108.523C92.4302 -107.231 91.9994 -106.435 91.1377 -106.137C88.652 -110.81 86.1663 -115.467 83.6806 -120.107C79.803 -126.238 76.1242 -129.304 72.6442 -129.304C70.4568 -129.304 68.0706 -128.492 65.4854 -126.868C65.2866 -126.768 63.1986 -125.244 59.2215 -122.294C50.9359 -126.536 46.7931 -129.105 46.7931 -130C46.7931 -130.331 47.6217 -131.143 49.2788 -132.436C53.6867 -135.915 58.4758 -137.655 63.646 -137.655ZM83.5812 -162.341L83.5812 -161.049C83.5812 -159.557 84.94 -158.348 87.6577 -157.42C94.949 -154.934 100.02 -152.051 102.87 -148.769C104.593 -146.781 106.416 -143.4 108.339 -138.628C110.029 -134.352 110.874 -131.569 110.874 -130.276C110.874 -129.779 110.692 -129.414 110.327 -129.182C109.996 -129.348 108.62 -131.105 106.201 -134.452C103.086 -138.76 100.55 -142.075 98.5947 -144.395C93.0268 -151.023 88.7846 -154.337 85.868 -154.337C85.3046 -154.337 85.0229 -153.989 85.0229 -153.293C85.0229 -151.106 84.4926 -148.703 83.4321 -146.085C82.3052 -143.367 81.1949 -142.008 80.1012 -142.008C78.5436 -142.008 75.2127 -143.284 70.1088 -145.836C64.806 -148.455 62.1546 -150.327 62.1546 -151.454C62.1546 -153.409 63.3312 -155.199 65.6843 -156.823C67.6728 -158.149 70.0094 -159.11 72.6939 -159.706L72.6939 -162.341L83.5812 -162.341ZM61.9558 -199.704C62.8838 -199.704 65.4523 -198.925 69.6614 -197.367C71.9482 -196.539 73.4893 -195.462 74.2848 -194.136C75.1465 -192.678 75.5773 -190.258 75.5773 -186.878C75.5773 -184.657 75.1962 -181.559 74.4339 -177.581C78.0796 -173.273 80.3664 -170.224 81.2944 -168.434C82.8189 -165.484 83.5812 -161.773 83.5812 -157.298L72.6939 -157.298L72.6939 -160.231C72.6939 -164.639 71.5174 -167.241 69.1643 -168.036C67.8386 -166.976 65.6843 -166.446 62.7015 -166.446C59.4535 -166.446 56.6696 -167.175 54.3496 -168.633C51.4993 -170.39 49.7262 -171.351 49.0302 -171.516C47.804 -171.682 46.5943 -171.831 45.4011 -171.964C43.4126 -172.295 42.4183 -172.776 42.4183 -173.405C44.7052 -176.653 46.3457 -179.106 47.34 -180.763C49.1297 -183.746 50.4056 -186.397 51.1679 -188.717C52.361 -192.429 53.5045 -194.981 54.5982 -196.373C56.3216 -198.594 58.7741 -199.704 61.9558 -199.704ZM64.9883 -195.23C63.6626 -195.23 62.2541 -194.252 60.7626 -192.297C59.2712 -190.341 58.5255 -188.502 58.5255 -186.778C61.6741 -186.215 64.5409 -184.989 67.126 -183.1L68.2694 -188.717C68.2694 -190.043 68.0208 -191.369 67.5237 -192.694C66.9271 -194.385 66.082 -195.23 64.9883 -195.23ZM57.929 -181.409C56.9678 -181.409 56.189 -180.912 55.5924 -179.918C54.9959 -178.957 54.6976 -177.847 54.6976 -176.587C54.6976 -175.129 55.493 -173.753 57.0838 -172.461C58.6747 -171.168 60.1827 -170.522 61.6078 -170.522C62.6683 -170.522 63.8283 -171.069 65.0877 -172.163C66.314 -173.289 66.9271 -174.383 66.9271 -175.444C66.9271 -177.2 65.8334 -178.675 63.646 -179.868C61.7569 -180.896 59.8512 -181.409 57.929 -181.409ZM64.7397 -309.13C66.0654 -309.13 68.17 -308.268 71.0534 -306.544C75.4944 -303.893 78.8584 -301.209 81.1452 -298.491C83.4321 -295.773 85.5366 -291.962 87.4589 -287.057C89.6463 -281.489 91.4691 -274.33 92.9274 -265.58C94.3193 -257.295 95.0153 -249.987 95.0153 -243.657C95.0153 -230.4 92.6622 -222.876 87.956 -221.087C86.564 -220.557 84.2772 -220.291 81.0955 -220.291C79.2064 -220.291 76.6544 -220.606 73.4396 -221.236C69.4625 -222.031 67.474 -222.926 67.474 -223.92C67.474 -224.583 67.7723 -224.915 68.3688 -224.915C68.7997 -224.915 69.4294 -224.832 70.2579 -224.666C71.0865 -224.534 71.7162 -224.467 72.1471 -224.467C79.2727 -224.467 82.8355 -231.328 82.8355 -245.049C82.8355 -259.897 81.3109 -273.17 78.2618 -284.869C75.6767 -294.945 72.1968 -301.623 67.822 -304.904L63.5466 -308.135C64.0106 -308.798 64.4083 -309.13 64.7397 -309.13ZM106.797 -272.54C107.957 -272.54 110.576 -269.624 114.652 -263.791C112.399 -261.835 111.007 -260.593 110.476 -260.062C108.455 -258.074 107.444 -256.649 107.444 -255.787L106.797 -255.787L98.197 -264.835C101.81 -269.972 104.676 -272.54 106.797 -272.54ZM15.7718 -341.869C21.638 -341.438 30.5865 -340.991 42.6172 -340.527C58.7575 -340.361 70.9042 -337.793 79.0573 -332.821C84.6915 -329.374 87.5086 -324.237 87.5086 -317.41C87.5086 -315.819 87.144 -314.029 86.4149 -312.041C85.6857 -310.085 85.0395 -309.108 84.476 -309.108C84.1115 -309.108 83.7469 -309.737 83.3823 -310.997C83.1503 -311.991 82.9018 -312.985 82.6366 -313.98C75.3122 -315.935 68.5014 -316.913 62.2043 -316.913C61.4421 -316.913 60.2821 -316.88 58.7244 -316.813C57.1335 -316.78 55.957 -316.764 55.1947 -316.764C45.3183 -316.764 35.9721 -319.1 27.1562 -323.773C27.1562 -324.204 27.4545 -324.602 28.0511 -324.966C33.4864 -323.641 42.468 -322.978 54.9959 -322.978C60.4312 -322.978 65.502 -322.381 70.2082 -321.188C73.9533 -320.094 77.715 -319.001 81.4932 -317.907C80.6315 -320.459 79.9355 -322.216 79.4052 -323.177C78.411 -325 76.9527 -326.723 75.0304 -328.347C71.8156 -331.031 66.7946 -332.771 59.9672 -333.567C56.5536 -333.931 50.2896 -334.114 41.1755 -334.114C37.1321 -334.114 32.5916 -334.76 27.5539 -336.053C22.1517 -337.411 17.9427 -339.118 14.9267 -341.173L15.7718 -341.869ZM63.646 -387.711C64.4083 -387.711 66.4466 -387.114 69.7608 -385.921C78.411 -382.806 84.0783 -379.641 86.7629 -376.426C87.5251 -375.498 88.652 -372.515 90.1434 -367.478C91.6679 -362.307 92.4302 -359.341 92.4302 -358.579C92.4302 -357.286 91.9994 -356.491 91.1377 -356.193C88.652 -360.866 86.1663 -365.522 83.6806 -370.162C79.803 -376.293 76.1241 -379.359 72.6442 -379.359C70.4568 -379.359 68.0705 -378.547 65.4854 -376.923C65.2866 -376.824 63.1986 -375.299 59.2215 -372.349C50.9359 -376.592 46.7931 -379.16 46.7931 -380.055C46.7931 -380.386 47.6217 -381.198 49.2788 -382.491C53.6867 -385.971 58.4758 -387.711 63.646 -387.711ZM83.5812 -412.397L83.5812 -411.104C83.5812 -409.613 84.94 -408.403 87.6577 -407.475C94.949 -404.989 100.02 -402.106 102.87 -398.825C104.593 -396.836 106.416 -393.456 108.339 -388.683C110.029 -384.408 110.874 -381.624 110.874 -380.331C110.874 -379.834 110.692 -379.47 110.327 -379.238C109.996 -379.403 108.62 -381.16 106.201 -384.507C103.085 -388.816 100.55 -392.13 98.5947 -394.45C93.0268 -401.079 88.7845 -404.393 85.868 -404.393C85.3046 -404.393 85.0229 -404.045 85.0229 -403.349C85.0229 -401.161 84.4926 -398.759 83.432 -396.14C82.3052 -393.423 81.1949 -392.064 80.1012 -392.064C78.5435 -392.064 75.2127 -393.34 70.1088 -395.892C64.806 -398.51 62.1546 -400.383 62.1546 -401.509C62.1546 -403.465 63.3312 -405.255 65.6843 -406.879C67.6728 -408.204 70.0094 -409.165 72.6939 -409.762L72.6939 -412.397L83.5812 -412.397ZM61.9558 -449.759C62.8838 -449.759 65.4523 -448.981 69.6614 -447.423C71.9482 -446.594 73.4893 -445.517 74.2847 -444.192C75.1464 -442.733 75.5773 -440.314 75.5773 -436.933C75.5773 -434.713 75.1962 -431.614 74.4339 -427.637C78.0795 -423.328 80.3664 -420.279 81.2944 -418.49C82.8189 -415.54 83.5812 -411.828 83.5812 -407.354L72.6939 -407.354L72.6939 -410.287C72.6939 -414.695 71.5174 -417.296 69.1642 -418.092C67.8385 -417.031 65.6843 -416.501 62.7015 -416.501C59.4535 -416.501 56.6696 -417.23 54.3496 -418.688C51.4993 -420.445 49.7262 -421.406 49.0302 -421.572C47.804 -421.738 46.5943 -421.887 45.4011 -422.019C43.4126 -422.351 42.4183 -422.831 42.4183 -423.461C44.7051 -426.709 46.3457 -429.161 47.34 -430.819C49.1297 -433.801 50.4056 -436.453 51.1679 -438.773C52.361 -442.485 53.5045 -445.037 54.5981 -446.429C56.3216 -448.649 58.7741 -449.759 61.9558 -449.759ZM64.9883 -445.285C63.6626 -445.285 62.254 -444.308 60.7626 -442.352C59.2712 -440.397 58.5255 -438.557 58.5255 -436.834C61.6741 -436.271 64.5409 -435.044 67.126 -433.155L68.2694 -438.773C68.2694 -440.098 68.0208 -441.424 67.5237 -442.75C66.9271 -444.44 66.082 -445.285 64.9883 -445.285ZM57.929 -431.465C56.9678 -431.465 56.189 -430.968 55.5924 -429.973C54.9959 -429.012 54.6976 -427.902 54.6976 -426.643C54.6976 -425.184 55.493 -423.809 57.0838 -422.516C58.6747 -421.224 60.1826 -420.578 61.6078 -420.578C62.6683 -420.578 63.8283 -421.124 65.0877 -422.218C66.314 -423.345 66.9271 -424.439 66.9271 -425.499C66.9271 -427.256 65.8334 -428.731 63.646 -429.924C61.7569 -430.951 59.8512 -431.465 57.929 -431.465Z" fill="#FABC4B"/>
</svg>
