<svg width="969" height="299" viewBox="0 0 969 299" fill="none" xmlns="http://www.w3.org/2000/svg">
<path opacity="0.7" d="M31.5418 199.042C31.7883 201.258 30.7394 204.936 28.3951 210.076C24.7894 217.991 20.928 224.113 16.8109 228.44C12.6938 232.768 6.71491 236.994 -1.12591 241.119C-10.0253 245.81 -21.6514 250.188 -36.0041 254.252C-49.5937 258.119 -61.6785 260.641 -72.2587 261.818C-94.4161 264.283 -107.428 261.749 -111.294 254.216C-112.439 251.988 -113.308 248.215 -113.899 242.898C-114.251 239.74 -114.199 235.416 -113.744 229.926C-113.154 223.131 -112.028 219.641 -110.367 219.456C-109.259 219.333 -108.649 219.77 -108.538 220.767C-108.458 221.487 -108.48 222.555 -108.603 223.97C-108.67 225.38 -108.664 226.445 -108.584 227.165C-107.259 239.074 -95.1298 243.754 -72.1969 241.202C-47.3806 238.442 -25.4789 233.425 -6.49197 226.154C9.867 219.96 20.3817 212.902 25.0523 204.98L29.6582 197.233C30.8523 197.885 31.4802 198.489 31.5418 199.042ZM-21.7925 276.14C-21.5768 278.079 -25.9646 282.997 -34.9559 290.895C-38.6432 287.492 -40.9792 285.397 -41.9641 284.609C-45.6637 281.6 -48.2335 280.175 -49.6738 280.335L-49.7939 279.255L-36.2706 263.198C-27.0129 268.281 -22.1869 272.595 -21.7925 276.14ZM77.1568 111.111C77.5274 120.996 78.4434 136.035 79.9049 156.229C82.629 183.237 80.5946 204.016 73.8015 218.567C69.0882 228.625 61.026 234.289 49.6149 235.558C46.956 235.854 43.897 235.577 40.4378 234.729C37.034 233.873 35.2798 232.975 35.175 232.033C35.1072 231.424 36.0919 230.698 38.1291 229.854C39.7477 229.281 41.3633 228.681 42.9758 228.053C44.8821 215.448 45.2499 203.882 44.079 193.358C43.9373 192.084 43.6662 190.151 43.2658 187.56C42.9146 184.907 42.6681 182.944 42.5264 181.67C40.69 165.162 42.8574 149.107 49.0287 133.503C49.7488 133.423 50.469 133.848 51.1892 134.777C49.9841 144.108 50.5463 159.243 52.8757 180.182C53.8863 189.266 53.8321 197.853 52.713 205.94C51.5814 212.403 50.4528 218.894 49.3274 225.412C53.4324 223.497 56.2389 222.007 57.7467 220.942C60.6085 218.941 63.2178 216.184 65.5746 212.669C69.4638 206.797 71.4383 198.081 71.4983 186.522C71.4729 180.749 70.6129 170.245 68.9182 155.012C68.1664 148.254 68.4023 140.545 69.6259 131.885C70.8926 122.603 72.9627 115.251 75.8364 109.828L77.1568 111.111ZM126.238 186.657C126.379 187.931 125.761 191.449 124.383 197.21C120.785 212.247 116.548 222.308 111.674 227.392C110.265 228.839 105.489 231.277 97.3467 234.706C88.9888 238.216 84.1728 240.041 82.8987 240.183C80.7384 240.424 79.3288 239.851 78.6701 238.467C86.0184 233.443 93.339 228.423 100.632 223.406C110.159 215.784 114.599 209.066 113.951 203.249C113.545 199.593 111.744 195.756 108.549 191.737C108.346 191.423 105.409 188.217 99.74 182.118C105.29 167.481 108.812 160.079 110.308 159.913C110.862 159.851 112.373 161.085 114.842 163.615C121.478 170.335 125.276 178.016 126.238 186.657ZM171.204 215.386L169.043 215.627C166.551 215.904 164.781 218.4 163.736 223.115C160.937 235.764 157.06 244.775 152.106 250.149C149.103 253.399 143.792 257.074 136.173 261.174C129.341 264.794 124.845 266.725 122.685 266.965C121.854 267.057 121.211 266.821 120.755 266.254C120.971 265.67 123.651 263.044 128.796 258.378C135.418 252.37 140.486 247.516 144 243.817C154.043 233.278 158.794 225.571 158.251 220.697C158.147 219.755 157.512 219.349 156.349 219.478C152.693 219.885 148.579 219.445 144.005 218.16C139.254 216.782 136.776 215.179 136.573 213.351C136.283 210.747 137.796 204.943 141.113 195.938C144.503 186.588 147.139 181.808 149.023 181.599C152.291 181.235 155.501 182.869 158.653 186.5C161.238 189.577 163.279 193.303 164.775 197.679L169.179 197.189L171.204 215.386ZM229.63 172.295C229.802 173.846 228.978 178.284 227.157 185.608C226.198 189.584 224.684 192.361 222.616 193.937C220.339 195.648 216.376 196.818 210.725 197.446C207.014 197.859 201.764 197.798 194.975 197.264C188.452 204.158 183.781 208.547 180.962 210.431C176.315 213.528 170.253 215.492 162.775 216.324L160.751 198.127L165.653 197.582C173.02 196.762 177.15 194.312 178.042 190.231C176.023 188.213 174.736 184.711 174.181 179.725C173.577 174.297 174.278 169.508 176.284 165.359C178.69 160.269 179.967 157.127 180.114 155.933C180.163 153.852 180.188 151.803 180.187 149.784C180.372 146.398 180.99 144.647 182.042 144.53C187.896 147.748 192.3 150.034 195.255 151.388C200.573 153.825 205.242 155.464 209.261 156.307C215.687 157.611 220.165 159.048 222.695 160.617C226.727 163.084 229.038 166.977 229.63 172.295ZM222.716 178.195C222.469 175.98 220.573 173.807 217.028 171.678C213.482 169.549 210.269 168.645 207.389 168.965C207.032 174.332 205.516 179.352 202.839 184.024L212.441 184.89C214.657 184.644 216.826 183.982 218.95 182.904C221.664 181.593 222.919 180.023 222.716 178.195ZM198.304 168.966C198.125 167.36 197.15 166.15 195.377 165.338C193.659 164.52 191.748 164.228 189.643 164.462C187.206 164.733 185.055 166.318 183.191 169.218C181.326 172.117 180.526 174.757 180.791 177.139C180.988 178.912 182.118 180.749 184.18 182.651C186.292 184.491 188.234 185.312 190.006 185.115C192.942 184.788 195.204 182.686 196.791 178.808C198.157 175.46 198.661 172.179 198.304 168.966ZM413.039 156.601C413.286 158.817 412.237 162.495 409.893 167.635C406.287 175.55 402.425 181.672 398.308 185.999C394.191 190.327 388.212 194.553 380.372 198.678C371.472 203.369 359.846 207.747 345.493 211.811C331.904 215.678 319.819 218.2 309.239 219.377C287.081 221.842 274.069 219.308 270.203 211.775C269.058 209.547 268.19 205.774 267.598 200.457C267.247 197.299 267.299 192.975 267.753 187.485C268.343 180.69 269.469 177.2 271.131 177.015C272.239 176.892 272.848 177.329 272.959 178.326C273.039 179.046 273.018 180.114 272.895 181.529C272.827 182.939 272.834 184.004 272.914 184.724C274.239 196.633 286.368 201.313 309.301 198.761C334.117 196.001 356.019 190.984 375.006 183.713C391.364 177.519 401.879 170.461 406.55 162.539L411.156 154.792C412.35 155.444 412.978 156.048 413.039 156.601ZM359.705 233.699C359.921 235.638 355.533 240.556 346.542 248.454C342.854 245.051 340.518 242.956 339.533 242.168C335.834 239.159 333.264 237.734 331.824 237.894L331.704 236.814L345.227 220.757C354.485 225.84 359.311 230.154 359.705 233.699ZM458.654 68.67C459.025 78.5548 459.941 93.5942 461.402 113.788C464.127 140.796 462.092 161.575 455.299 176.126C450.586 186.184 442.523 191.848 431.112 193.117C428.454 193.413 425.394 193.136 421.935 192.288C418.532 191.432 416.777 190.534 416.672 189.592C416.605 188.983 417.589 188.257 419.627 187.413C421.245 186.841 422.861 186.24 424.473 185.612C426.38 173.007 426.747 161.441 425.576 150.917C425.435 149.643 425.164 147.71 424.763 145.119C424.412 142.466 424.166 140.503 424.024 139.229C422.187 122.721 424.355 106.666 430.526 91.0624C431.246 90.9823 431.966 91.4069 432.687 92.3362C431.482 101.667 432.044 116.802 434.373 137.741C435.384 146.825 435.33 155.412 434.21 163.499C433.079 169.962 431.95 176.453 430.825 182.971C434.93 181.056 437.736 179.566 439.244 178.501C442.106 176.5 444.715 173.743 447.072 170.228C450.961 164.356 452.936 155.64 452.996 144.081C452.97 138.308 452.11 127.804 450.416 112.571C449.664 105.813 449.9 98.1041 451.123 89.4439C452.39 80.1621 454.46 72.8098 457.334 67.3869L458.654 68.67ZM544.175 140.162C544.317 141.436 543.699 144.954 542.321 150.715C538.722 165.752 534.486 175.813 529.612 180.898C528.203 182.344 523.427 184.782 515.284 188.212C506.926 191.721 502.11 193.547 500.836 193.688C498.676 193.929 497.266 193.356 496.608 191.972C503.956 186.948 511.277 181.928 518.569 176.911C528.096 169.29 532.536 162.571 531.889 156.754C531.482 153.099 529.682 149.261 526.487 145.242C526.283 144.929 523.347 141.722 517.678 135.623C523.227 120.986 526.75 113.585 528.246 113.418C528.8 113.356 530.311 114.59 532.779 117.12C539.415 123.84 543.214 131.521 544.175 140.162ZM589.141 168.891L586.981 169.132C584.488 169.409 582.719 171.905 581.673 176.62C578.874 189.269 574.998 198.28 570.044 203.654C567.041 206.904 561.73 210.579 554.11 214.68C547.279 218.3 542.783 220.23 540.623 220.47C539.792 220.563 539.149 220.326 538.693 219.759C538.908 219.175 541.588 216.549 546.733 211.883C553.355 205.875 558.423 201.021 561.937 197.322C571.981 186.783 576.731 179.076 576.189 174.202C576.084 173.26 575.45 172.854 574.287 172.983C570.631 173.39 566.516 172.951 561.943 171.665C557.191 170.287 554.714 168.684 554.51 166.856C554.221 164.252 555.734 158.448 559.05 149.443C562.44 140.093 565.077 135.313 566.96 135.104C570.229 134.74 573.439 136.374 576.59 140.005C579.176 143.082 581.217 146.809 582.713 151.185L587.117 150.695L589.141 168.891ZM647.567 125.8C647.74 127.351 646.916 131.789 645.095 139.113C644.135 143.09 642.622 145.866 640.554 147.442C638.277 149.153 634.313 150.323 628.663 150.952C624.952 151.364 619.701 151.304 612.912 150.769C606.389 157.663 601.718 162.053 598.899 163.936C594.253 167.033 588.191 168.997 580.712 169.829L578.688 151.632L583.59 151.087C590.958 150.267 595.087 147.817 595.979 143.736C593.96 141.718 592.673 138.216 592.119 133.23C591.515 127.802 592.216 123.013 594.222 118.864C596.628 113.774 597.904 110.632 598.052 109.438C598.101 107.357 598.125 105.308 598.125 103.289C598.309 99.9036 598.927 98.1524 599.98 98.0354C605.834 101.254 610.238 103.54 613.192 104.893C618.511 107.33 623.179 108.97 627.199 109.812C633.625 111.116 638.102 112.553 640.632 114.122C644.664 116.589 646.976 120.482 647.567 125.8ZM640.653 131.7C640.407 129.485 638.511 127.312 634.965 125.183C631.42 123.054 628.207 122.15 625.326 122.47C624.97 127.837 623.453 132.857 620.777 137.529L630.378 138.395C632.594 138.149 634.764 137.487 636.887 136.409C639.601 135.098 640.857 133.528 640.653 131.7ZM616.242 122.471C616.063 120.865 615.087 119.656 613.314 118.843C611.597 118.025 609.686 117.733 607.581 117.967C605.144 118.238 602.993 119.823 601.128 122.723C599.264 125.622 598.464 128.262 598.729 130.644C598.926 132.417 600.056 134.254 602.118 136.156C604.229 137.996 606.171 138.817 607.944 138.62C610.88 138.293 613.141 136.191 614.729 132.313C616.095 128.965 616.599 125.684 616.242 122.471ZM830.977 110.107C831.223 112.322 830.174 116 827.83 121.14C824.224 129.055 820.363 135.177 816.246 139.505C812.129 143.832 806.15 148.058 798.309 152.183C789.41 156.874 777.784 161.252 763.431 165.316C749.841 169.183 737.757 171.705 727.176 172.882C705.019 175.347 692.007 172.813 688.141 165.28C686.996 163.052 686.127 159.28 685.536 153.962C685.184 150.804 685.236 146.48 685.691 140.99C686.281 134.195 687.407 130.705 689.069 130.52C690.176 130.397 690.786 130.834 690.897 131.831C690.977 132.551 690.955 133.619 690.833 135.035C690.765 136.444 690.771 137.509 690.851 138.229C692.176 150.139 704.305 154.818 727.238 152.267C752.054 149.506 773.956 144.49 792.943 137.218C809.302 131.024 819.817 123.966 824.487 116.044L829.093 108.297C830.287 108.95 830.915 109.553 830.977 110.107ZM777.643 187.204C777.858 189.143 773.47 194.061 764.479 201.959C760.792 198.556 758.456 196.461 757.471 195.673C753.771 192.664 751.202 191.239 749.761 191.4L749.641 190.319L763.164 174.262C772.422 179.345 777.248 183.659 777.643 187.204ZM876.592 22.1751C876.962 32.0599 877.879 47.0994 879.34 67.2935C882.064 94.3009 880.03 115.08 873.237 129.631C868.523 139.689 860.461 145.353 849.05 146.622C846.391 146.918 843.332 146.642 839.873 145.793C836.469 144.938 834.715 144.039 834.61 143.098C834.542 142.488 835.527 141.762 837.564 140.918C839.183 140.346 840.798 139.745 842.411 139.117C844.317 126.512 844.685 114.947 843.514 104.422C843.372 103.148 843.101 101.215 842.701 98.624C842.35 95.9712 842.103 94.0078 841.961 92.7338C840.125 76.2265 842.292 60.1711 848.464 44.5675C849.184 44.4874 849.904 44.912 850.624 45.8413C849.419 55.1723 849.981 70.3072 852.311 91.246C853.321 100.331 853.267 108.917 852.148 117.004C851.016 123.467 849.888 129.958 848.762 136.476C852.867 134.561 855.674 133.071 857.182 132.006C860.044 130.006 862.653 127.248 865.01 123.733C868.899 117.861 870.873 109.145 870.933 97.5861C870.908 91.8128 870.048 81.3095 868.353 66.0763C867.601 59.3183 867.837 51.6092 869.061 42.949C870.328 33.6672 872.398 26.3149 875.271 20.892L876.592 22.1751ZM962.113 93.6673C962.254 94.9414 961.636 98.459 960.258 104.22C956.66 119.257 952.424 129.318 947.55 134.403C946.14 135.849 941.364 138.287 933.222 141.717C924.864 145.226 920.048 147.052 918.774 147.193C916.614 147.434 915.204 146.862 914.545 145.477C921.894 140.453 929.214 135.433 936.507 130.416C946.034 122.795 950.474 116.076 949.827 110.26C949.42 106.604 947.619 102.766 944.424 98.7475C944.221 98.4337 941.285 95.2273 935.615 89.1286C941.165 74.4914 944.688 67.0896 946.183 66.9232C946.737 66.8616 948.248 68.0955 950.717 70.6248C957.353 77.3451 961.151 85.0259 962.113 93.6673ZM1007.08 122.397L1004.92 122.637C1002.43 122.914 1000.66 125.41 999.611 130.125C996.812 142.774 992.936 151.785 987.982 157.159C984.978 160.409 979.667 164.084 972.048 168.185C965.217 171.805 960.721 173.735 958.56 173.975C957.729 174.068 957.086 173.831 956.631 173.265C956.846 172.68 959.526 170.054 964.671 165.388C971.293 159.38 976.361 154.526 979.875 150.827C989.918 140.288 994.669 132.582 994.126 127.707C994.022 126.765 993.388 126.359 992.224 126.488C988.568 126.895 984.454 126.456 979.881 125.17C975.129 123.792 972.651 122.189 972.448 120.361C972.158 117.757 973.671 111.953 976.988 102.948C980.378 93.5981 983.015 88.8185 984.898 88.6089C988.166 88.2454 991.376 89.8791 994.528 93.51C997.114 96.5872 999.154 100.314 1000.65 104.69L1005.05 104.2L1007.08 122.397ZM1065.51 79.3051C1065.68 80.8561 1064.85 85.2939 1063.03 92.6185C1062.07 96.5947 1060.56 99.3708 1058.49 100.947C1056.21 102.658 1052.25 103.828 1046.6 104.457C1042.89 104.87 1037.64 104.809 1030.85 104.274C1024.33 111.169 1019.66 115.558 1016.84 117.441C1012.19 120.538 1006.13 122.502 998.65 123.334L996.626 105.137L1001.53 104.592C1008.9 103.772 1013.02 101.322 1013.92 97.2414C1011.9 95.2228 1010.61 91.7208 1010.06 86.7354C1009.45 81.3069 1010.15 76.5182 1012.16 72.3695C1014.57 67.2791 1015.84 64.1368 1015.99 62.9427C1016.04 60.8624 1016.06 58.8128 1016.06 56.794C1016.25 53.4087 1016.87 51.6576 1017.92 51.5405C1023.77 54.7587 1028.18 57.0447 1031.13 58.3983C1036.45 60.835 1041.12 62.4746 1045.14 63.3173C1051.56 64.6213 1056.04 66.0579 1058.57 67.627C1062.6 70.0946 1064.91 73.9873 1065.51 79.3051ZM1058.59 85.2055C1058.34 82.9898 1056.45 80.8173 1052.9 78.6882C1049.36 76.5591 1046.14 75.6547 1043.26 75.9752C1042.91 81.3423 1041.39 86.3619 1038.71 91.0338L1048.32 91.9004C1050.53 91.6539 1052.7 90.9919 1054.82 89.9145C1057.54 88.6032 1058.79 87.0335 1058.59 85.2055ZM1034.18 75.9764C1034 74.37 1033.02 73.1607 1031.25 72.3485C1029.53 71.5301 1027.62 71.238 1025.52 71.4722C1023.08 71.7433 1020.93 73.3285 1019.07 76.2277C1017.2 79.127 1016.4 81.7675 1016.67 84.1495C1016.86 85.9221 1017.99 87.7591 1020.06 89.6607C1022.17 91.5008 1024.11 92.3222 1025.88 92.125C1028.82 91.7984 1031.08 89.6962 1032.67 85.8184C1034.03 82.4699 1034.54 79.1892 1034.18 75.9764Z" fill="#FABC4B"/>
</svg>
