<?xml version="1.0" encoding="UTF-8"?>
<svg id="Calque_1" data-name="Calque 1" xmlns="http://www.w3.org/2000/svg" viewBox="0 0 390.31 221.91">
  <defs>
    <style>
      .cls-1 {
        fill: #fabc4b;
      }

      .cls-2 {
        fill: none;
        stroke: #000;
        stroke-miterlimit: 10;
        stroke-width: 26px;
      }
    </style>
  </defs>
  <path class="cls-1" d="M182.03,117.8c0,2.23-1.45,5.77-4.35,10.62-4.46,7.47-8.97,13.13-13.54,16.97-4.57,3.85-10.98,7.39-19.23,10.62-9.36,3.68-21.4,6.74-36.12,9.2-13.93,2.34-26.22,3.51-36.87,3.51-22.29,0-34.95-3.96-37.96-11.87-.89-2.34-1.34-6.19-1.34-11.54,0-3.18,.53-7.47,1.59-12.88,1.34-6.69,2.84-10.03,4.51-10.03,1.11,0,1.67,.5,1.67,1.5,0,.72-.14,1.78-.42,3.18-.22,1.39-.33,2.45-.33,3.18,0,11.98,11.54,17.97,34.61,17.97,24.97,0,47.29-2.56,66.97-7.69,16.94-4.35,28.17-10.2,33.69-17.56l5.43-7.19c1.11,.78,1.67,1.45,1.67,2.01Zm-61.53,70.73c0,1.95-4.9,6.35-14.71,13.21-3.29-3.79-5.38-6.13-6.27-7.02-3.34-3.4-5.74-5.1-7.19-5.1v-1.09l15.22-14.46c8.64,6.07,12.96,10.9,12.96,14.46ZM237.08,35.45c-.73,9.87-1.48,24.91-2.26,45.15-.28,27.14-4.6,47.57-12.96,61.28-5.8,9.47-14.43,14.21-25.92,14.21-2.68,0-5.69-.61-9.03-1.84-3.29-1.23-4.93-2.31-4.93-3.26,0-.61,1.06-1.23,3.18-1.84,1.67-.39,3.35-.81,5.02-1.25,3.29-12.32,4.93-23.77,4.93-34.36,0-1.28-.06-3.23-.17-5.85-.06-2.68-.08-4.65-.08-5.94,0-16.61,3.93-32.33,11.79-47.15,.73,0,1.39,.5,2.01,1.5-2.23,9.14-3.34,24.24-3.34,45.31,0,9.14-1,17.67-3.01,25.58-1.84,6.3-3.68,12.62-5.52,18.98,4.29-1.45,7.25-2.62,8.86-3.51,3.07-1.67,5.96-4.12,8.69-7.36,4.51-5.41,7.44-13.85,8.78-25.33,.61-5.74,.92-16.27,.92-31.6,0-6.8,1.09-14.44,3.26-22.91,2.28-9.08,5.16-16.16,8.61-21.24l1.17,1.42Zm40.43,80.51c0,1.28-1,4.71-3.01,10.28-5.24,14.55-10.56,24.08-15.97,28.59-1.56,1.28-6.58,3.18-15.05,5.68-8.69,2.56-13.68,3.85-14.96,3.85-2.17,0-3.51-.72-4.01-2.17,7.86-4.18,15.69-8.36,23.49-12.54,10.31-6.52,15.47-12.71,15.47-18.56,0-3.68-1.37-7.69-4.1-12.04-.17-.33-2.73-3.85-7.69-10.53,7.13-13.93,11.45-20.9,12.96-20.9,.56,0,1.92,1.39,4.1,4.18,5.85,7.41,8.78,15.47,8.78,24.16Zm41.51,33.53h-2.17c-2.51,0-4.54,2.29-6.1,6.86-4.18,12.26-9.03,20.79-14.55,25.58-3.34,2.9-9.03,5.96-17.06,9.2-7.19,2.84-11.87,4.26-14.04,4.26-.84,0-1.45-.31-1.84-.92,.28-.56,3.23-2.87,8.86-6.94,7.25-5.24,12.82-9.5,16.72-12.79,11.15-9.36,16.72-16.5,16.72-21.4,0-.95-.59-1.42-1.76-1.42-3.68,0-7.72-.89-12.12-2.68-4.57-1.89-6.86-3.76-6.86-5.6,0-2.62,2.15-8.22,6.44-16.8,4.4-8.92,7.55-13.38,9.45-13.38,3.29,0,6.3,1.98,9.03,5.94,2.23,3.34,3.85,7.27,4.85,11.79h4.43v18.31Zm62.83-36.37c0,1.56-1.31,5.88-3.93,12.96-1.39,3.85-3.2,6.44-5.43,7.78-2.45,1.45-6.52,2.17-12.21,2.17-3.74,0-8.95-.64-15.63-1.92-7.25,6.13-12.37,9.98-15.38,11.54-4.96,2.56-11.2,3.85-18.73,3.85v-18.31h4.93c7.41,0,11.79-1.98,13.12-5.94-1.78-2.23-2.68-5.85-2.68-10.87,0-5.46,1.23-10.14,3.68-14.05,2.95-4.79,4.57-7.78,4.85-8.95,.28-2.06,.53-4.1,.75-6.1,.56-3.34,1.37-5.02,2.42-5.02,5.46,3.85,9.59,6.6,12.37,8.28,5.02,3.01,9.48,5.16,13.38,6.44,6.24,2.01,10.53,3.93,12.88,5.77,3.73,2.9,5.6,7.02,5.6,12.37Zm-7.52,5.1c0-2.23-1.64-4.6-4.93-7.11-3.29-2.51-6.38-3.76-9.28-3.76-.95,5.29-3.01,10.12-6.19,14.46l9.45,1.92c2.23,0,4.46-.42,6.69-1.25,2.84-1,4.26-2.42,4.26-4.26Zm-23.24-11.87c0-1.62-.84-2.93-2.51-3.93-1.62-1-3.48-1.5-5.6-1.5-2.45,0-4.77,1.34-6.94,4.01-2.17,2.68-3.26,5.21-3.26,7.61,0,1.78,.92,3.73,2.76,5.85,1.89,2.06,3.73,3.09,5.52,3.09,2.95,0,5.43-1.84,7.44-5.52,1.73-3.18,2.59-6.38,2.59-9.61Z"/>
  <path class="cls-2" d="M333.07,81s11.29,10.16,22.59,15.44,18.82,9.41,19.95,14.31,4.52,10.54-3.39,15.06-13.18,5.27-21.46,3.01-18.82-3.39-20.71-8.28-1.13-22.96,9.79-25.98,15.81,3.01,15.81,7.15-5.27,35.76-39.53,41.41-28.99-6.02-21.46-15.81,9.41-21.08,12.42-12.42,6.02,42.16-3.39,52.33-20.71,18.82-28.61,22.21-6.78,7.15-14.68,4.52,42.16-123.11,42.16-123.11l-35.76,23.34s-6.02,11.29-.75,23.72,1.88,23.72-10.54,32-33.51,13.55-35.76,13.55,17.69-33.88,22.96-83.2,.75-64,.75-64l-9.79,3.01s-3.01,55.34-6.02,77.93-6.4,52.33-28.61,53.46-1.13-101.27-1.13-101.27l7.15-3.01s.75,96.38-22.59,109.55-4.14-5.27-4.14-5.27c0,0,19.2-21.08,8.28-42.16s-6.27,7.31-6.27,7.31c0,0-11.42,34.1-71.28,40.5-59.15,6.32-79.81,8.66-70.02-38.4s-25.98,11.67-25.98,11.67l1.51,76.42,133.65-27.86"/>
</svg>