<svg width="39" height="85" viewBox="0 0 39 85" fill="none" xmlns="http://www.w3.org/2000/svg">
<path d="M2.84516 77.7932C2.84516 77.7932 4.24605 76.943 5.64488 76.1156C6.33956 75.7046 7.04203 75.2812 7.5822 74.9753C8.04649 74.5999 8.37693 74.3418 8.37693 74.3418C6.3886 68.5503 7.13616 65.1013 8.13184 62.797C8.75752 61.7113 10.8095 59.4245 10.8095 59.4245C11.5253 61.1298 12.561 63.2383 12.8633 65.5793C13.0102 67.7571 12.7135 70.5326 10.4302 72.8035C10.6525 73.0361 17.4106 66.602 17.1805 66.3909C15.4579 63.8489 14.5817 61.7215 14.1652 59.9685C13.6187 58.1376 13.5658 56.6941 13.7778 55.5691C14.0428 54.4128 15.1926 51.7985 15.1926 51.7985C16.4111 53.124 17.9861 54.7452 19.0383 56.8714C19.628 57.9701 19.7724 59.0441 19.7972 60.3216C19.7547 61.5689 19.6229 63.0548 18.8189 64.4426C18.876 64.4705 20.1694 62.4918 21.3908 60.4809C22.0783 59.49 22.53 58.3981 22.877 57.5917C23.2203 56.7518 23.4518 56.2209 23.4518 56.2209C18.8752 52.4779 16.5979 49.5482 16.3831 44.6324C16.4741 43.9399 16.6882 43.5099 16.6882 43.5099C19.7119 44.9112 25.2032 47.32 24.3997 53.8524C24.3997 53.8524 24.9617 51.6003 25.5141 49.3627C25.7787 48.2364 25.7285 47.0592 25.8252 46.2163C25.8927 45.3442 25.9348 44.767 25.9348 44.767C20.3528 42.8843 17.6258 41.0548 16.3289 38.9703C15.0047 36.9569 14.8532 34.9135 14.8532 34.9135C18.4589 35.4745 24.3197 35.9679 25.9612 42.2321C25.9612 42.2321 25.9346 41.6552 25.843 40.8031C25.7338 39.9583 25.5624 38.8047 25.3343 37.6581C24.8686 35.3857 24.1367 33.1627 24.1367 33.1627C18.0576 33.3555 14.928 31.7638 13.0251 30.1439C11.1886 28.5027 10.5544 26.6425 10.5544 26.6425C14.169 26.1547 19.8908 25.1693 23.2774 30.7568C23.2774 30.7568 22.4471 28.5933 21.3697 26.5153C20.3334 24.4175 19.0454 22.4902 19.0454 22.4902C13.1901 24.2833 9.81827 23.6176 7.69078 22.8204C6.6675 22.3372 4.67767 20.702 4.67767 20.702C6.21902 19.6915 8.14565 18.5504 10.4014 18.1501C12.63 17.7469 15.2374 18.1752 17.5792 20.4015C17.5792 20.4015 17.3603 20.0532 16.9583 19.578C16.571 19.1253 16.0563 18.5209 15.5416 17.9164C14.4477 16.7268 13.3252 15.6207 13.3252 15.6207C12.0271 15.7138 10.1278 15.6023 8.26707 14.7541C6.31177 13.9248 4.80012 12.1174 1.81527 8.48895C1.80832 8.47239 1.79347 8.46175 1.78464 8.46546L1.8023 8.45805L1.78608 8.41941L1.83541 8.44415C6.29406 6.07019 10.3016 7.52059 12.207 9.23933C14.286 11.028 14.5885 13.3106 14.6731 14.4525C14.6731 14.4525 15.9033 15.6264 17.0072 16.8923C17.5572 17.5377 18.1084 18.1982 18.5279 18.6842C18.8823 19.2131 19.151 19.547 19.151 19.547C17.5201 16.5524 16.937 13.8891 16.7025 11.2119C16.4284 8.58256 16.5637 5.97605 16.1209 3.70568C16.1209 3.70568 16.9471 4.08721 18.129 4.85555C19.1568 5.71453 20.6944 6.9126 21.6984 8.63324C23.9431 11.9829 24.5306 16.9175 20.5156 21.5238C20.5156 21.5238 21.8971 23.5871 23.0115 25.8275C24.1445 28.0535 25.016 30.3802 25.016 30.3802C23.4643 23.8381 26.1763 19.2114 27.2638 14.794C27.2638 14.794 29.7052 17.1277 30.6358 20.7797C31.635 24.4004 30.9256 29.2238 25.8387 32.6248C25.8387 32.6248 26.6105 35.0076 27.1179 37.4443C27.6145 39.8985 27.77 42.4154 27.77 42.4154C28.1023 35.6329 31.8517 31.8599 34.1237 27.954C34.1237 27.954 35.8143 30.76 35.7814 34.597C35.7416 38.3435 33.9366 43.3464 27.7043 44.8135C27.7043 44.8135 27.659 45.4479 27.5846 46.3749C27.4753 47.3205 27.5664 48.583 27.2259 49.81C26.6255 52.2456 26.0305 54.6725 26.0305 54.6725C28.7794 48.5685 33.5602 46.2631 37.1794 42.9874C37.1794 42.9874 37.2884 43.8439 37.2423 45.194C37.2168 46.5496 37.0033 48.4256 36.398 50.3206C34.7254 54.006 31.3753 57.6569 25.0853 56.8867C25.0853 56.8867 24.8368 57.4792 24.4722 58.3579C24.1319 59.2421 23.5971 60.4207 22.8614 61.4669C22.1985 62.5475 21.4993 63.6251 21.0175 64.4349C20.5796 65.1393 20.1775 65.5638 20.0846 65.6704C21.3857 64.5608 22.372 63.499 23.6472 62.8287C24.8316 62.0628 26.2472 61.6309 27.3713 61.1265C29.7659 60.1539 32.2758 59.6663 34.4438 58.8342C34.4438 58.8342 34.2531 59.6542 33.7783 60.8765C33.244 62.081 32.6207 63.8498 31.2132 65.204C29.8591 66.611 28.1071 67.8865 26.0164 68.4759C23.8216 68.9843 21.2741 68.8009 18.5202 67.5629C18.7343 67.773 12.87 73.3178 11.555 74.2398C13.0049 73.5247 14.2808 72.9892 15.548 72.6182C16.8858 72.2579 18.2556 72.11 19.5918 72.0892C22.1651 71.9659 24.6025 72.215 26.8702 72.1524C26.8702 72.1524 26.4638 72.8604 25.7052 73.8708C24.9301 74.8881 23.7416 76.1608 22.0721 77.0485C18.8951 79.0519 14.1016 79.623 9.39117 75.8024C9.39117 75.8024 9.04274 76.0486 8.55043 76.45C8.00969 76.7483 7.29145 77.1991 6.56477 77.6236C5.10859 78.4906 3.66693 79.3489 3.66693 79.3489L3.65766 79.3268C3.63559 79.3361 3.61616 79.3702 3.60623 79.3744C3.17025 79.5574 2.64276 79.3647 2.45142 78.9088C2.27009 78.4799 2.4484 78.0078 2.84516 77.7932Z" fill="#FCD081"/>
</svg>
